<svg id="Layer_1" data-name="Layer 1" xmlns="http://www.w3.org/2000/svg" viewBox="0 0 1363.08 117.16"><defs><style>.cls-1{fill:#f7f7f7;}.cls-2{fill:#fbfbfb;}</style></defs><path class="cls-1" d="M1156.24,117.16c2,0,.76-3.33-1-4.37C1122.81,93.08,963.75,0,856.91,0,737.42,0,626.61,74.12,524.48,74.12S385.08,9.56,249.25,9.56C134.58,9.56,31,86.25,1.47,110.14a4,4,0,0,0,2.49,7Z"/><path class="cls-2" d="M226.76,117.16S347.07,25.24,482.9,25.24,656,80.39,758.14,80.39s212.93-63.32,332.42-63.32c106.21,0,242.27,79.65,271.21,97.36,1.59,1,1.9,2.74,0,2.73Z"/></svg>